<?xml version="1.0" encoding="UTF-8" standalone="no"?>
<!-- Created with Inkscape (http://www.inkscape.org/) -->

<svg
   width="157.79358mm"
   height="71.393005mm"
   viewBox="0 0 596.3852 269.83183"
   version="1.1"
   id="svg1"
   xml:space="preserve"
   xmlns:inkscape="http://www.inkscape.org/namespaces/inkscape"
   xmlns:sodipodi="http://sodipodi.sourceforge.net/DTD/sodipodi-0.dtd"
   xmlns="http://www.w3.org/2000/svg"
   xmlns:svg="http://www.w3.org/2000/svg"><sodipodi:namedview
     id="namedview1"
     pagecolor="#ffffff"
     bordercolor="#000000"
     borderopacity="0.25"
     inkscape:showpageshadow="2"
     inkscape:pageopacity="0.0"
     inkscape:pagecheckerboard="0"
     inkscape:deskcolor="#d1d1d1"
     inkscape:document-units="mm" /><defs
     id="defs1" /><g
     inkscape:label="Ebene 1"
     inkscape:groupmode="layer"
     id="layer1"
     transform="translate(-46.787701,-333.37991)"><path
       style="fill:#2f0a0a;stroke:none"
       d="m 577.29375,349.61915 0.8,5.6 -9.6,2.4 c 2.64234,8.80273 5.00066,8.93376 13.6,8 v 16 l -44,4 c 3.05403,-18.71946 -20.57973,-47.95542 -39.96198,-32.27808 -5.24333,4.24107 -7.26648,10.60672 -12.77806,14.61504 -1.54453,1.12327 -4.16759,2.86897 -3.57302,5.16973 0.79263,3.06716 6.2786,1.5936 8.15104,3.78342 2.35511,2.75431 -0.83173,8.83258 -1.43798,11.90989 3.68666,0.39209 15.17244,5.23087 10.00486,10.19487 -6.78191,6.51474 -36.02327,11.85712 -28.40486,23.40513 -8.05349,4.25254 -18.91087,16.64885 -28,17.26371 -4.04046,0.27333 -8.58046,-3.08668 -12,-4.90345 -8.4298,-4.47868 -17.94004,-10.92179 -27.2,-13.34911 -5.98554,-1.569 -11.42973,4.00062 -16,7.07105 -11.04117,7.41776 -35.8919,17.76264 -36,32.3178 12.49182,-3.92291 24.49123,-12.21809 36,-18.41223 4.36983,-2.35189 10.82832,-7.35802 16,-6.70395 6.66141,0.84248 14.14163,6.39737 20,9.50869 12.17004,6.46338 24.59386,12.46679 36.8,18.86999 40.67459,21.33741 81.75281,41.90623 122.4,63.28724 11.3815,5.98684 22.97168,11.58364 34.40001,17.48107 4.62402,2.38619 11.17602,4.37786 14.66669,8.36846 4.84422,5.53794 2.13331,19.82774 2.13331,26.80073 h 8.8 c 0,-7.90004 3.07876,-23.97873 -1.16409,-30.7768 -4.30598,-6.89925 -19.59116,-12.23142 -26.83591,-15.6232 l 8.8,-18.4 c -9.57061,-5.03322 -20.28665,-8.62299 -30.40001,-12.44931 -4.58923,-1.73633 -11.06203,-3.27096 -14.66669,-6.75088 -6.90262,-6.66372 2.27573,-15.72554 4.98242,-21.59978 1.17138,-2.54223 1.09646,-6.75209 3.28381,-8.65636 2.16997,-1.88915 6.86321,-1.15115 9.60046,-1.74367 l -16.8,-44 18.4,-2.4 -3.75385,-12.22996 13.0645,-9.7752 -0.56353,-26.79484 0.796,-10.1127 8.18159,2.91902 16.6753,-4.00632 c -0.74285,-5.31397 -4.7355,-21.62998 -10.10169,-23.87405 -3.70044,-1.54746 -12.00117,2.20835 -15.26416,4.06223 -3.36348,1.91099 -1.23943,7.14771 -4.60452,8.36253 -2.66037,0.9604 -5.66396,-1.34138 -8.42964,-1.16223 -5.3791,0.34846 -10.71281,3.47812 -16,4.61152 m -73.6,90.4 c 0.82123,5.75751 3.44956,11.79444 3.32705,17.6 -0.10391,4.92432 -5.87668,12.66602 -11.33421,11.81205 -9.85719,-1.54242 -20.43599,-10.18675 -29.59284,-14.21205 3.15637,-4.85139 12.44809,-11.72898 18.34708,-12.49023 2.94152,-0.3796 5.1498,2.21778 8.10584,1.80334 3.82109,-0.53573 7.41935,-3.38806 11.14708,-4.51311 m -102.4,28.39378 c -48.75387,6.65726 -51.12674,77.32222 -6.4,91.97121 6.79774,2.2264 14.51126,2.71436 21.6,1.70096 47.14855,-6.74038 52.61728,-75.35315 8.8,-91.47317 -7.5785,-2.78808 -16.01612,-3.28919 -24,-2.199 m 2.4,0.77122 c 28.40392,-4.34694 53.3085,22.46358 51.08208,50.035 -1.75025,21.67471 -19.50422,39.16709 -40.68208,42.11172 -44.91058,6.24451 -67.79767,-55.05681 -33.59692,-82.29405 6.61649,-5.26933 14.84831,-8.57499 23.19692,-9.85267 m 4.84578,5.46989 c -6.3985,0.8962 -4.92619,11.19294 1.48595,10.04836 6.27652,-1.12037 4.80252,-10.92915 -1.48595,-10.04836 m 17.55422,2.96511 c -4.84274,4.92478 -13.63729,11.64904 -7.29233,18.5648 2.05754,2.24262 6.21831,3.02053 7.77971,5.41526 2.36648,3.62949 -1.59251,9.42893 1.82987,14.03259 2.57646,3.46578 5.94794,-0.45624 9.1507,0.90212 4.41463,1.87237 7.04845,7.81643 10.93205,10.68523 3.11809,-18.59768 -9.0222,-37.56606 -22.4,-49.6 m -56,48.8 c 2.66979,-3.26081 7.51406,-16.94137 12.20753,-16.43191 6.31039,0.68499 17.67423,21.2835 23.96598,13.67061 2.47419,-2.9937 -0.0707,-6.60242 -1.79476,-9.2387 -3.56915,-5.45776 -10.38352,-11.9221 -11.9719,-18.30897 -1.0907,-4.3857 6.1214,-6.66676 4.50537,-10.75695 -1.69969,-4.30192 -17.55048,1.67985 -19.73473,4.10651 -2.37312,2.6365 -2.41396,7.2359 -3.02804,10.55941 -1.60765,8.7008 -3.50961,17.56896 -4.14945,26.4 m 33.6,-41.6 -6.4,16.8 7.2,-13.6 h 0.8 l -5.6,17.6 h 1.6 c 2.92293,-6.71812 9.91544,-15.16229 2.4,-20.8 m 33.6,60 -11.62362,-32 -6.77638,-13.6 8,23.2 h -0.8 c -2.4378,-8.07671 -5.47216,-16.27382 -8.86456,-23.99997 -1.53095,-3.48672 -4.56447,-7.0969 -1.53544,-10.40003 l -0.8,-3.2 c -8.01666,3.51171 -3.13669,10.59449 -0.75137,16.8 3.99754,10.39976 8.82944,18.55157 14.1543,28.03672 2.91153,5.18628 4.09639,11.40794 8.99707,15.16328 m 96,-60 v 4.8 l -4,-1.6 v -1.6 l 4,-1.6 m -116.8,30.4 c -7.83469,9.05308 -16.67667,16.22273 -25.56159,24.11873 -2.35758,2.09517 -7.24959,6.12759 -5.14488,9.82585 2.27716,4.00132 7.65043,-0.0145 9.90609,-1.80835 8.96881,-7.13234 17.17014,-14.82995 26.40038,-21.73623 l -4,-10.4 h -1.6 m -28,2.4 -10.4,25.6 c 4.60751,-4.68889 14.09159,-17.52768 14.4,-24 l -1.6,1.6 h -0.8 v -3.2 h -1.6 m 23.2,16.8 c 1.0678,3.29463 2.70499,5.99432 4.73412,8.80015 1.34064,1.85383 2.69207,3.73626 4.19667,5.46196 1.85145,2.12351 9.13694,7.09724 9.02544,0.78567 -0.12251,-6.93518 -11.22688,-17.57873 -17.95623,-15.04778 z"
       id="path131420" /></g></svg>
